<?xml version="1.0" encoding="UTF-8"?>
<svg id="Ebene_1" data-name="Ebene 1" xmlns="http://www.w3.org/2000/svg" viewBox="0 0 3297.21 414.05">
  <defs>
    <style>
      .cls-1 {
        fill: #e76f51;
      }

      .cls-2 {
        fill: #ffd576;
      }

      .cls-3 {
        fill: #2a9d8f;
      }

      .cls-4 {
        fill: #35bca8;
      }

      .cls-5 {
        fill: #227a6d;
      }

      .cls-6 {
        fill: #f4a261;
      }

      .cls-7 {
        fill: #c4a15c;
      }

      .cls-8 {
        fill: #c95e49;
      }

      .cls-9 {
        fill: #ff775c;
      }

      .cls-10 {
        fill: #264653;
      }

      .cls-11 {
        fill: #ce8452;
      }

      .cls-12 {
        fill: #ffb871;
      }

      .cls-13 {
        fill: #e9c46a;
      }
    </style>
  </defs>
  <g>
    <g>
      <rect class="cls-3" x="0" y="205.11" width="205.01" height="205.01" transform="translate(-205.11 410.12) rotate(-90)"/>
      <polygon class="cls-5" points="0 410.12 14.14 396.29 191 396.29 191 219.24 205.01 205.11 205.01 410.12 0 410.12"/>
      <polygon class="cls-4" points="205.01 205.09 190.95 219.25 14.16 219.25 14.16 396.26 0 410.1 0 205.09 205.01 205.09"/>
    </g>
    <g>
      <rect class="cls-13" x="205.08" y="205.11" width="205.01" height="205.01" transform="translate(-.03 615.2) rotate(-90)"/>
      <polygon class="cls-7" points="205.08 410.12 219.22 396.29 396.07 396.29 396.07 219.24 410.09 205.11 410.09 410.12 205.08 410.12"/>
      <polygon class="cls-2" points="410.09 205.09 396.03 219.25 219.24 219.25 219.24 396.26 205.08 410.1 205.08 205.09 410.09 205.09"/>
    </g>
    <g>
      <rect class="cls-6" x="410.11" y="205.05" width="205.01" height="205.01" transform="translate(205.06 820.18) rotate(-90)"/>
      <polygon class="cls-11" points="410.11 410.07 424.25 396.23 601.11 396.23 601.11 219.18 615.12 205.05 615.12 410.07 410.11 410.07"/>
      <polygon class="cls-12" points="615.12 205.03 601.06 219.19 424.27 219.19 424.27 396.19 410.11 410.04 410.11 205.03 615.12 205.03"/>
    </g>
    <g>
      <rect class="cls-1" x="410.11" y=".02" width="205.01" height="205.01" transform="translate(410.09 615.14) rotate(-90)"/>
      <polygon class="cls-8" points="410.11 205.03 424.25 191.2 601.11 191.2 601.11 14.14 615.12 .02 615.12 205.03 410.11 205.03"/>
      <polygon class="cls-9" points="615.12 0 601.06 14.16 424.27 14.16 424.27 191.16 410.11 205.01 410.11 0 615.12 0"/>
    </g>
  </g>
  <g>
    <path class="cls-10" d="M857.35,228.91c-8.6-3.52-19.51-6.94-32.73-10.25-13.01-3.31-22.6-6.56-28.76-9.75-6.17-3.19-9.26-7.88-9.26-14.05,0-5.51,2.26-9.8,6.78-12.89,4.52-3.08,10.96-4.63,19.34-4.63,9.04,0,16.25,2.15,21.66,6.45,5.4,4.3,8.43,10.08,9.09,17.36h44.3c-1.32-18.51-8.49-33.23-21.49-44.14-13.01-10.91-30.42-16.37-52.24-16.37-14.77,0-27.61,2.43-38.52,7.27-10.91,4.85-19.29,11.46-25.13,19.84-5.84,8.38-8.76,17.64-8.76,27.77,0,12.35,3.14,22.15,9.42,29.42,6.28,7.27,13.77,12.68,22.48,16.2,8.7,3.53,19.89,6.94,33.56,10.25,13.22,3.53,22.86,6.78,28.93,9.75,6.06,2.98,9.09,7.44,9.09,13.39,0,5.51-2.48,10.03-7.44,13.56-4.96,3.53-11.85,5.29-20.66,5.29s-16.59-2.31-22.65-6.94c-6.07-4.63-9.54-10.47-10.41-17.52h-46.62c.66,11.24,4.46,21.49,11.41,30.75,6.94,9.26,16.37,16.59,28.27,21.99,11.9,5.4,25.34,8.1,40.34,8.1s27.28-2.37,38.19-7.11c10.91-4.74,19.28-11.29,25.13-19.67,5.84-8.37,8.76-17.85,8.76-28.43-.22-12.12-3.47-21.87-9.75-29.26-6.28-7.38-13.72-12.84-22.32-16.37Z"/>
    <path class="cls-10" d="M1060.35,244.45c0,14.55-3.64,25.74-10.91,33.56-7.27,7.83-17.31,11.74-30.09,11.74s-22.48-3.91-29.76-11.74c-7.27-7.82-10.91-19.01-10.91-33.56v-100.84h-46.29v107.45c0,16.31,3.14,30.37,9.42,42.15,6.28,11.79,14.93,20.72,25.95,26.78,11.02,6.06,23.69,9.09,38.02,9.09,11.24,0,21.66-2.26,31.24-6.78,9.59-4.51,17.36-10.74,23.31-18.68v23.14h46.62v-183.16h-46.62v100.84Z"/>
    <path class="cls-10" d="M1308.48,152.21c-12.68-7.71-26.84-11.57-42.48-11.57-13.45,0-25.41,2.81-35.87,8.43-10.47,5.62-18.68,12.62-24.63,20.99v-26.45h-46.29v270.44h46.29v-113.4c6.39,8.38,14.71,15.32,24.96,20.83,10.25,5.51,22.09,8.27,35.54,8.27,15.65,0,29.81-3.97,42.48-11.9,12.67-7.93,22.7-19.12,30.09-33.56,7.38-14.43,11.08-31.02,11.08-49.76s-3.69-35.21-11.08-49.43c-7.39-14.22-17.41-25.18-30.09-32.9ZM1295.58,263.62c-4.52,8.16-10.47,14.44-17.85,18.84-7.39,4.41-15.37,6.61-23.97,6.61s-16.26-2.15-23.64-6.45c-7.39-4.3-13.34-10.52-17.85-18.68-4.52-8.15-6.78-17.74-6.78-28.76s2.26-20.61,6.78-28.76c4.52-8.15,10.47-14.38,17.85-18.68,7.38-4.3,15.26-6.45,23.64-6.45s16.58,2.1,23.97,6.28c7.38,4.19,13.33,10.31,17.85,18.35,4.52,8.05,6.78,17.58,6.78,28.6s-2.26,20.94-6.78,29.09Z"/>
    <path class="cls-10" d="M1539.25,152.21c-12.68-7.71-26.84-11.57-42.48-11.57-13.45,0-25.41,2.81-35.87,8.43-10.47,5.62-18.68,12.62-24.63,20.99v-26.45h-46.29v270.44h46.29v-113.4c6.39,8.38,14.71,15.32,24.96,20.83,10.25,5.51,22.09,8.27,35.54,8.27,15.65,0,29.81-3.97,42.48-11.9,12.67-7.93,22.7-19.12,30.09-33.56,7.38-14.43,11.08-31.02,11.08-49.76s-3.69-35.21-11.08-49.43c-7.39-14.22-17.41-25.18-30.09-32.9ZM1526.35,263.62c-4.52,8.16-10.47,14.44-17.85,18.84-7.39,4.41-15.37,6.61-23.97,6.61s-16.26-2.15-23.64-6.45c-7.39-4.3-13.34-10.52-17.85-18.68-4.52-8.15-6.78-17.74-6.78-28.76s2.26-20.61,6.78-28.76c4.52-8.15,10.47-14.38,17.85-18.68,7.38-4.3,15.26-6.45,23.64-6.45s16.58,2.1,23.97,6.28c7.38,4.19,13.33,10.31,17.85,18.35,4.51,8.05,6.78,17.58,6.78,28.6s-2.26,20.94-6.78,29.09Z"/>
    <rect class="cls-10" x="1620.74" y="82.11" width="46.29" height="244.66"/>
    <polygon class="cls-10" points="1797.29 271.56 1750.01 143.61 1698.1 143.61 1771.5 322.14 1731.83 413.39 1781.09 413.39 1894.49 143.61 1845.23 143.61 1797.29 271.56"/>
    <polygon class="cls-10" points="1968.82 291.54 1968.43 291.54 1968.43 291.93 1968.43 322.9 1968.43 323.29 1968.82 323.29 1999.79 323.29 2000.18 323.29 2000.18 322.9 2000.18 291.93 2000.18 291.54 1999.79 291.54 1968.82 291.54"/>
    <polygon class="cls-10" points="2046.25 291.54 2045.87 291.54 2045.87 291.93 2045.87 322.9 2045.87 323.29 2046.25 323.29 2077.23 323.29 2077.62 323.29 2077.62 322.9 2077.62 291.93 2077.62 291.54 2077.23 291.54 2046.25 291.54"/>
    <polygon class="cls-10" points="2007.54 136.67 2007.15 136.67 2007.15 137.05 2007.15 168.03 2007.15 168.41 2007.54 168.41 2038.51 168.41 2038.9 168.41 2038.9 168.03 2038.9 137.05 2038.9 136.67 2038.51 136.67 2007.54 136.67"/>
    <polygon class="cls-10" points="2084.97 252.82 2084.58 252.82 2084.58 253.21 2084.58 284.18 2084.58 284.57 2084.97 284.57 2115.95 284.57 2116.33 284.57 2116.33 284.18 2116.33 253.21 2116.33 252.82 2115.95 252.82 2084.97 252.82"/>
    <polygon class="cls-10" points="2084.97 175.38 2084.58 175.38 2084.58 175.77 2084.58 206.75 2084.58 207.13 2084.97 207.13 2115.95 207.13 2116.33 207.13 2116.33 206.75 2116.33 175.77 2116.33 175.38 2115.95 175.38 2084.97 175.38"/>
    <polygon class="cls-10" points="2046.25 136.67 2045.87 136.67 2045.87 137.05 2045.87 168.03 2045.87 168.41 2046.25 168.41 2077.23 168.41 2077.62 168.41 2077.62 168.03 2077.62 137.05 2077.62 136.67 2077.23 136.67 2046.25 136.67"/>
    <polygon class="cls-10" points="1930.1 214.1 1929.71 214.1 1929.71 214.49 1929.71 245.46 1929.71 245.85 1930.1 245.85 1961.08 245.85 1961.46 245.85 1961.46 245.46 1961.46 214.49 1961.46 214.1 1961.08 214.1 1930.1 214.1"/>
    <polygon class="cls-10" points="1930.1 252.82 1929.71 252.82 1929.71 253.21 1929.71 284.18 1929.71 284.57 1930.1 284.57 1961.08 284.57 1961.46 284.57 1961.46 284.18 1961.46 253.21 1961.46 252.82 1961.08 252.82 1930.1 252.82"/>
    <polygon class="cls-10" points="2007.54 291.54 2007.15 291.54 2007.15 291.93 2007.15 322.9 2007.15 323.29 2007.54 323.29 2038.51 323.29 2038.9 323.29 2038.9 322.9 2038.9 291.93 2038.9 291.54 2038.51 291.54 2007.54 291.54"/>
    <polygon class="cls-10" points="1968.82 136.67 1968.43 136.67 1968.43 137.05 1968.43 168.03 1968.43 168.41 1968.82 168.41 1999.79 168.41 2000.18 168.41 2000.18 168.03 2000.18 137.05 2000.18 136.67 1999.79 136.67 1968.82 136.67"/>
    <polygon class="cls-10" points="1930.1 175.38 1929.71 175.38 1929.71 175.77 1929.71 206.75 1929.71 207.13 1930.1 207.13 1961.08 207.13 1961.46 207.13 1961.46 206.75 1961.46 175.77 1961.46 175.38 1961.08 175.38 1930.1 175.38"/>
    <polygon class="cls-10" points="2321.15 291.54 2320.76 291.54 2320.76 291.93 2320.76 322.9 2320.76 323.29 2321.15 323.29 2352.12 323.29 2352.51 323.29 2352.51 322.9 2352.51 291.93 2352.51 291.54 2352.12 291.54 2321.15 291.54"/>
    <polygon class="cls-10" points="2282.43 291.54 2282.04 291.54 2282.04 291.93 2282.04 322.9 2282.04 323.29 2282.43 323.29 2313.4 323.29 2313.79 323.29 2313.79 322.9 2313.79 291.93 2313.79 291.54 2313.4 291.54 2282.43 291.54"/>
    <polygon class="cls-10" points="2282.43 136.67 2282.04 136.67 2282.04 137.05 2282.04 168.03 2282.04 168.41 2282.43 168.41 2313.4 168.41 2313.79 168.41 2313.79 168.03 2313.79 137.05 2313.79 136.67 2313.4 136.67 2282.43 136.67"/>
    <polygon class="cls-10" points="2282.43 214.1 2282.04 214.1 2282.04 214.49 2282.04 245.46 2282.04 245.85 2282.43 245.85 2313.4 245.85 2313.79 245.85 2313.79 245.46 2313.79 214.49 2313.79 214.1 2313.4 214.1 2282.43 214.1"/>
    <polygon class="cls-10" points="2321.15 175.38 2320.76 175.38 2320.76 175.77 2320.76 206.75 2320.76 207.13 2321.15 207.13 2352.12 207.13 2352.51 207.13 2352.51 206.75 2352.51 175.77 2352.51 175.38 2352.12 175.38 2321.15 175.38"/>
    <polygon class="cls-10" points="2321.15 214.1 2320.76 214.1 2320.76 214.49 2320.76 245.46 2320.76 245.85 2321.15 245.85 2352.12 245.85 2352.51 245.85 2352.51 245.46 2352.51 214.49 2352.51 214.1 2352.12 214.1 2321.15 214.1"/>
    <polygon class="cls-10" points="2321.15 252.82 2320.76 252.82 2320.76 253.21 2320.76 284.18 2320.76 284.57 2321.15 284.57 2352.12 284.57 2352.51 284.57 2352.51 284.18 2352.51 253.21 2352.51 252.82 2352.12 252.82 2321.15 252.82"/>
    <polygon class="cls-10" points="2204.99 136.67 2204.61 136.67 2204.61 137.05 2204.61 168.03 2204.61 168.41 2204.99 168.41 2235.97 168.41 2236.36 168.41 2236.36 168.03 2236.36 137.05 2236.36 136.67 2235.97 136.67 2204.99 136.67"/>
    <polygon class="cls-10" points="2204.99 214.1 2204.61 214.1 2204.61 214.49 2204.61 245.46 2204.61 245.85 2204.99 245.85 2235.97 245.85 2236.36 245.85 2236.36 245.46 2236.36 214.49 2236.36 214.1 2235.97 214.1 2204.99 214.1"/>
    <polygon class="cls-10" points="2204.99 291.54 2204.61 291.54 2204.61 291.93 2204.61 322.9 2204.61 323.29 2204.99 323.29 2235.97 323.29 2236.36 323.29 2236.36 322.9 2236.36 291.93 2236.36 291.54 2235.97 291.54 2204.99 291.54"/>
    <polygon class="cls-10" points="2166.28 252.82 2165.89 252.82 2165.89 253.21 2165.89 284.18 2165.89 284.57 2166.28 284.57 2197.25 284.57 2197.64 284.57 2197.64 284.18 2197.64 253.21 2197.64 252.82 2197.25 252.82 2166.28 252.82"/>
    <polygon class="cls-10" points="2243.71 214.1 2243.33 214.1 2243.33 214.49 2243.33 245.46 2243.33 245.85 2243.71 245.85 2274.69 245.85 2275.07 245.85 2275.07 245.46 2275.07 214.49 2275.07 214.1 2274.69 214.1 2243.71 214.1"/>
    <polygon class="cls-10" points="2243.71 291.54 2243.33 291.54 2243.33 291.93 2243.33 322.9 2243.33 323.29 2243.71 323.29 2274.69 323.29 2275.07 323.29 2275.07 322.9 2275.07 291.93 2275.07 291.54 2274.69 291.54 2243.71 291.54"/>
    <polygon class="cls-10" points="2243.71 136.67 2243.33 136.67 2243.33 137.05 2243.33 168.03 2243.33 168.41 2243.71 168.41 2274.69 168.41 2275.07 168.41 2275.07 168.03 2275.07 137.05 2275.07 136.67 2274.69 136.67 2243.71 136.67"/>
    <polygon class="cls-10" points="2441.17 175.38 2440.78 175.38 2440.78 175.77 2440.78 206.75 2440.78 207.13 2441.17 207.13 2472.14 207.13 2472.53 207.13 2472.53 206.75 2472.53 175.77 2472.53 175.38 2472.14 175.38 2441.17 175.38"/>
    <polygon class="cls-10" points="2402.45 252.82 2402.07 252.82 2402.07 253.21 2402.07 284.18 2402.07 284.57 2402.45 284.57 2433.43 284.57 2433.81 284.57 2433.81 284.18 2433.81 253.21 2433.81 252.82 2433.43 252.82 2402.45 252.82"/>
    <polygon class="cls-10" points="2518.61 136.67 2518.22 136.67 2518.22 137.05 2518.22 168.03 2518.22 168.41 2518.61 168.41 2549.58 168.41 2549.97 168.41 2549.97 168.03 2549.97 137.05 2549.97 136.67 2549.58 136.67 2518.61 136.67"/>
    <polygon class="cls-10" points="2479.89 136.67 2479.5 136.67 2479.5 137.05 2479.5 168.03 2479.5 168.41 2479.89 168.41 2510.86 168.41 2511.25 168.41 2511.25 168.03 2511.25 137.05 2511.25 136.67 2510.86 136.67 2479.89 136.67"/>
    <polygon class="cls-10" points="2402.45 214.1 2402.07 214.1 2402.07 214.49 2402.07 245.46 2402.07 245.85 2402.45 245.85 2433.43 245.85 2433.81 245.85 2433.81 245.46 2433.81 214.49 2433.81 214.1 2433.43 214.1 2402.45 214.1"/>
    <polygon class="cls-10" points="2402.45 175.38 2402.07 175.38 2402.07 175.77 2402.07 206.75 2402.07 207.13 2402.45 207.13 2433.43 207.13 2433.81 207.13 2433.81 206.75 2433.81 175.77 2433.81 175.38 2433.43 175.38 2402.45 175.38"/>
    <polygon class="cls-10" points="2402.45 136.67 2402.07 136.67 2402.07 137.05 2402.07 168.03 2402.07 168.41 2402.45 168.41 2433.43 168.41 2433.81 168.41 2433.81 168.03 2433.81 137.05 2433.81 136.67 2433.43 136.67 2402.45 136.67"/>
    <polygon class="cls-10" points="2402.45 291.54 2402.07 291.54 2402.07 291.93 2402.07 322.9 2402.07 323.29 2402.45 323.29 2433.43 323.29 2433.81 323.29 2433.81 322.9 2433.81 291.93 2433.81 291.54 2433.43 291.54 2402.45 291.54"/>
    <polygon class="cls-10" points="2557.32 291.54 2556.94 291.54 2556.94 291.93 2556.94 322.9 2556.94 323.29 2557.32 323.29 2588.3 323.29 2588.69 323.29 2588.69 322.9 2588.69 291.93 2588.69 291.54 2588.3 291.54 2557.32 291.54"/>
    <polygon class="cls-10" points="2557.32 175.38 2556.94 175.38 2556.94 175.77 2556.94 206.75 2556.94 207.13 2557.32 207.13 2588.3 207.13 2588.69 207.13 2588.69 206.75 2588.69 175.77 2588.69 175.38 2588.3 175.38 2557.32 175.38"/>
    <polygon class="cls-10" points="2557.32 214.1 2556.94 214.1 2556.94 214.49 2556.94 245.46 2556.94 245.85 2557.32 245.85 2588.3 245.85 2588.69 245.85 2588.69 245.46 2588.69 214.49 2588.69 214.1 2588.3 214.1 2557.32 214.1"/>
    <polygon class="cls-10" points="2557.32 252.82 2556.94 252.82 2556.94 253.21 2556.94 284.18 2556.94 284.57 2557.32 284.57 2588.3 284.57 2588.69 284.57 2588.69 284.18 2588.69 253.21 2588.69 252.82 2588.3 252.82 2557.32 252.82"/>
    <polygon class="cls-10" points="2716.06 291.54 2715.68 291.54 2715.68 291.93 2715.68 322.9 2715.68 323.29 2716.06 323.29 2747.04 323.29 2747.43 323.29 2747.43 322.9 2747.43 291.93 2747.43 291.54 2747.04 291.54 2716.06 291.54"/>
    <polygon class="cls-10" points="2793.5 175.38 2793.11 175.38 2793.11 175.77 2793.11 206.75 2793.11 207.13 2793.5 207.13 2824.47 207.13 2824.86 207.13 2824.86 206.75 2824.86 175.77 2824.86 175.38 2824.47 175.38 2793.5 175.38"/>
    <polygon class="cls-10" points="2754.78 214.1 2754.4 214.1 2754.4 214.49 2754.4 245.46 2754.4 245.85 2754.78 245.85 2785.76 245.85 2786.14 245.85 2786.14 245.46 2786.14 214.49 2786.14 214.1 2785.76 214.1 2754.78 214.1"/>
    <polygon class="cls-10" points="2754.78 252.82 2754.4 252.82 2754.4 253.21 2754.4 284.18 2754.4 284.57 2754.78 284.57 2785.76 284.57 2786.14 284.57 2786.14 284.18 2786.14 253.21 2786.14 252.82 2785.76 252.82 2754.78 252.82"/>
    <polygon class="cls-10" points="2793.5 136.67 2793.11 136.67 2793.11 137.05 2793.11 168.03 2793.11 168.41 2793.5 168.41 2824.47 168.41 2824.86 168.41 2824.86 168.03 2824.86 137.05 2824.86 136.67 2824.47 136.67 2793.5 136.67"/>
    <polygon class="cls-10" points="2638.63 175.38 2638.24 175.38 2638.24 175.77 2638.24 206.75 2638.24 207.13 2638.63 207.13 2669.6 207.13 2669.99 207.13 2669.99 206.75 2669.99 175.77 2669.99 175.38 2669.6 175.38 2638.63 175.38"/>
    <polygon class="cls-10" points="2638.63 136.67 2638.24 136.67 2638.24 137.05 2638.24 168.03 2638.24 168.41 2638.63 168.41 2669.6 168.41 2669.99 168.41 2669.99 168.03 2669.99 137.05 2669.99 136.67 2669.6 136.67 2638.63 136.67"/>
    <polygon class="cls-10" points="2677.35 214.1 2676.96 214.1 2676.96 214.49 2676.96 245.46 2676.96 245.85 2677.35 245.85 2708.32 245.85 2708.71 245.85 2708.71 245.46 2708.71 214.49 2708.71 214.1 2708.32 214.1 2677.35 214.1"/>
    <polygon class="cls-10" points="2677.35 252.82 2676.96 252.82 2676.96 253.21 2676.96 284.18 2676.96 284.57 2677.35 284.57 2708.32 284.57 2708.71 284.57 2708.71 284.18 2708.71 253.21 2708.71 252.82 2708.32 252.82 2677.35 252.82"/>
    <polygon class="cls-10" points="3029.68 291.54 3029.29 291.54 3029.29 291.93 3029.29 322.9 3029.29 323.29 3029.68 323.29 3060.65 323.29 3061.04 323.29 3061.04 322.9 3061.04 291.93 3061.04 291.54 3060.65 291.54 3029.68 291.54"/>
    <polygon class="cls-10" points="2990.96 291.54 2990.57 291.54 2990.57 291.93 2990.57 322.9 2990.57 323.29 2990.96 323.29 3021.93 323.29 3022.32 323.29 3022.32 322.9 3022.32 291.93 3022.32 291.54 3021.93 291.54 2990.96 291.54"/>
    <polygon class="cls-10" points="2990.96 214.1 2990.57 214.1 2990.57 214.49 2990.57 245.46 2990.57 245.85 2990.96 245.85 3021.93 245.85 3022.32 245.85 3022.32 245.46 3022.32 214.49 3022.32 214.1 3021.93 214.1 2990.96 214.1"/>
    <polygon class="cls-10" points="3029.68 175.38 3029.29 175.38 3029.29 175.77 3029.29 206.75 3029.29 207.13 3029.68 207.13 3060.65 207.13 3061.04 207.13 3061.04 206.75 3061.04 175.77 3061.04 175.38 3060.65 175.38 3029.68 175.38"/>
    <polygon class="cls-10" points="3029.68 214.1 3029.29 214.1 3029.29 214.49 3029.29 245.46 3029.29 245.85 3029.68 245.85 3060.65 245.85 3061.04 245.85 3061.04 245.46 3061.04 214.49 3061.04 214.1 3060.65 214.1 3029.68 214.1"/>
    <polygon class="cls-10" points="3029.68 252.82 3029.29 252.82 3029.29 253.21 3029.29 284.18 3029.29 284.57 3029.68 284.57 3060.65 284.57 3061.04 284.57 3061.04 284.18 3061.04 253.21 3061.04 252.82 3060.65 252.82 3029.68 252.82"/>
    <polygon class="cls-10" points="2990.96 136.67 2990.57 136.67 2990.57 137.05 2990.57 168.03 2990.57 168.41 2990.96 168.41 3021.93 168.41 3022.32 168.41 3022.32 168.03 3022.32 137.05 3022.32 136.67 3021.93 136.67 2990.96 136.67"/>
    <polygon class="cls-10" points="2913.52 214.1 2913.14 214.1 2913.14 214.49 2913.14 245.46 2913.14 245.85 2913.52 245.85 2944.5 245.85 2944.88 245.85 2944.88 245.46 2944.88 214.49 2944.88 214.1 2944.5 214.1 2913.52 214.1"/>
    <polygon class="cls-10" points="2952.24 136.67 2951.85 136.67 2951.85 137.05 2951.85 168.03 2951.85 168.41 2952.24 168.41 2983.21 168.41 2983.6 168.41 2983.6 168.03 2983.6 137.05 2983.6 136.67 2983.21 136.67 2952.24 136.67"/>
    <polygon class="cls-10" points="2874.8 252.82 2874.42 252.82 2874.42 253.21 2874.42 284.18 2874.42 284.57 2874.8 284.57 2905.78 284.57 2906.17 284.57 2906.17 284.18 2906.17 253.21 2906.17 252.82 2905.78 252.82 2874.8 252.82"/>
    <polygon class="cls-10" points="2913.52 291.54 2913.14 291.54 2913.14 291.93 2913.14 322.9 2913.14 323.29 2913.52 323.29 2944.5 323.29 2944.88 323.29 2944.88 322.9 2944.88 291.93 2944.88 291.54 2944.5 291.54 2913.52 291.54"/>
    <polygon class="cls-10" points="2952.24 214.1 2951.85 214.1 2951.85 214.49 2951.85 245.46 2951.85 245.85 2952.24 245.85 2983.21 245.85 2983.6 245.85 2983.6 245.46 2983.6 214.49 2983.6 214.1 2983.21 214.1 2952.24 214.1"/>
    <polygon class="cls-10" points="2952.24 291.54 2951.85 291.54 2951.85 291.93 2951.85 322.9 2951.85 323.29 2952.24 323.29 2983.21 323.29 2983.6 323.29 2983.6 322.9 2983.6 291.93 2983.6 291.54 2983.21 291.54 2952.24 291.54"/>
    <polygon class="cls-10" points="2913.52 136.67 2913.14 136.67 2913.14 137.05 2913.14 168.03 2913.14 168.41 2913.52 168.41 2944.5 168.41 2944.88 168.41 2944.88 168.03 2944.88 137.05 2944.88 136.67 2944.5 136.67 2913.52 136.67"/>
    <polygon class="cls-10" points="3188.42 291.54 3188.03 291.54 3188.03 291.93 3188.03 322.9 3188.03 323.29 3188.42 323.29 3219.39 323.29 3219.78 323.29 3219.78 322.9 3219.78 291.93 3219.78 291.54 3219.39 291.54 3188.42 291.54"/>
    <polygon class="cls-10" points="3227.13 291.54 3226.75 291.54 3226.75 291.93 3226.75 322.9 3226.75 323.29 3227.13 323.29 3258.11 323.29 3258.5 323.29 3258.5 322.9 3258.5 291.93 3258.5 291.54 3258.11 291.54 3227.13 291.54"/>
    <polygon class="cls-10" points="3227.13 214.1 3226.75 214.1 3226.75 214.49 3226.75 245.46 3226.75 245.85 3227.13 245.85 3258.11 245.85 3258.5 245.85 3258.5 245.46 3258.5 214.49 3258.5 214.1 3258.11 214.1 3227.13 214.1"/>
    <polygon class="cls-10" points="3296.83 252.82 3265.85 252.82 3265.46 252.82 3265.46 253.21 3265.46 284.18 3265.46 284.57 3265.85 284.57 3296.83 284.57 3297.21 284.57 3297.21 284.18 3297.21 253.21 3297.21 252.82 3296.83 252.82"/>
    <polygon class="cls-10" points="3188.42 136.67 3188.03 136.67 3188.03 137.05 3188.03 168.03 3188.03 168.41 3188.42 168.41 3219.39 168.41 3219.78 168.41 3219.78 168.03 3219.78 137.05 3219.78 136.67 3219.39 136.67 3188.42 136.67"/>
    <polygon class="cls-10" points="3227.13 136.67 3226.75 136.67 3226.75 137.05 3226.75 168.03 3226.75 168.41 3227.13 168.41 3258.11 168.41 3258.5 168.41 3258.5 168.03 3258.5 137.05 3258.5 136.67 3258.11 136.67 3227.13 136.67"/>
    <polygon class="cls-10" points="3149.7 136.67 3149.31 136.67 3149.31 137.05 3149.31 168.03 3149.31 168.41 3149.7 168.41 3180.67 168.41 3181.06 168.41 3181.06 168.03 3181.06 137.05 3181.06 136.67 3180.67 136.67 3149.7 136.67"/>
    <polygon class="cls-10" points="3110.98 175.38 3110.59 175.38 3110.59 175.77 3110.59 206.75 3110.59 207.13 3110.98 207.13 3141.95 207.13 3142.34 207.13 3142.34 206.75 3142.34 175.77 3142.34 175.38 3141.95 175.38 3110.98 175.38"/>
    <polygon class="cls-10" points="3149.7 291.54 3149.31 291.54 3149.31 291.93 3149.31 322.9 3149.31 323.29 3149.7 323.29 3180.67 323.29 3181.06 323.29 3181.06 322.9 3181.06 291.93 3181.06 291.54 3180.67 291.54 3149.7 291.54"/>
    <polygon class="cls-10" points="3110.98 291.54 3110.59 291.54 3110.59 291.93 3110.59 322.9 3110.59 323.29 3110.98 323.29 3141.95 323.29 3142.34 323.29 3142.34 322.9 3142.34 291.93 3142.34 291.54 3141.95 291.54 3110.98 291.54"/>
    <polygon class="cls-10" points="3149.7 214.1 3149.31 214.1 3149.31 214.49 3149.31 245.46 3149.31 245.85 3149.7 245.85 3180.67 245.85 3181.06 245.85 3181.06 245.46 3181.06 214.49 3181.06 214.1 3180.67 214.1 3149.7 214.1"/>
    <polygon class="cls-10" points="3188.42 214.1 3188.03 214.1 3188.03 214.49 3188.03 245.46 3188.03 245.85 3188.42 245.85 3219.39 245.85 3219.78 245.85 3219.78 245.46 3219.78 214.49 3219.78 214.1 3219.39 214.1 3188.42 214.1"/>
  </g>
</svg>